<svg xmlns="http://www.w3.org/2000/svg" viewBox="0 0 203.94 205.79"><title>simbol RGT_1</title><g id="Camada_2" data-name="Camada 2"><g id="Camada_1-2" data-name="Camada 1"><path d="M11.47,139A97.4,97.4,0,0,1,124.14,8a36,36,0,0,1,2.19-4.12A101.92,101.92,0,0,0,10.52,147.94c.23-3,.55-6.07,1-8.94"/><path d="M186.15,45.42a36.57,36.57,0,0,1-3.09,3.48,97.38,97.38,0,0,1-53.83,147.55c-.11.13-.2.27-.31.4-1,1.24-1.88,2.42-2.73,3.54l-1.43,1.88A101.89,101.89,0,0,0,186.15,45.42"/><path d="M47.41,118.69a23.2,23.2,0,0,1-8-1.49c-5.9-2.17-10.08-6.07-11.19-10.43-1.59-6.25-.26-16.12,1.32-20.85a65.66,65.66,0,0,0,1.91-11c.28-2.33.54-4.52.87-6.16a9.35,9.35,0,0,1,4.15-6.3,9.74,9.74,0,0,1,8-.72A26.13,26.13,0,0,1,62.28,81.79c2.3,12.87,1.83,28.7-6.43,34.53a14.64,14.64,0,0,1-8.44,2.37M33.82,87.34c-1.39,4.19-2.53,13.18-1.22,18.32.72,2.83,4,5.7,8.38,7.31,4.7,1.73,9.52,1.6,12.27-.34,6.11-4.32,6.71-18.2,4.59-30C56,72.33,47.48,67.28,43.23,66a5.53,5.53,0,0,0-4.41.25,4.92,4.92,0,0,0-2.07,3.33c-.29,1.46-.54,3.57-.81,5.8-.49,4.08-1,8.71-2.12,11.93"/><path d="M43.31,139.14c-7.47,0-11.8-2.84-12-3a2.25,2.25,0,0,1-.79-2.81c0-.06,3.07-7.08,1.56-21.33a2.25,2.25,0,1,1,4.48-.47c1.19,11.22-.25,18.37-1.21,21.63,2.44,1,7.73,2.48,15.33.46A12.3,12.3,0,0,0,55.9,130c-1.65-2.38-4.35-7.6-3.6-15.69a2.26,2.26,0,0,1,4.5.42c-.85,9.11,3.43,13.5,3.47,13.55a2.25,2.25,0,0,1,.54,2.34c-.67,1.92-4.59,6.2-9,7.41a33,33,0,0,1-8.5,1.16"/><path d="M130,56.41a16.87,16.87,0,0,1-6.8-1.17c-3.3-1.64-9.67-9.34-9.44-19.72a1.34,1.34,0,0,1,0-.2c.77-7,9.71-10.66,10.09-10.81h0c.82-.31,20.19-7.78,27-8.94a9.81,9.81,0,0,1,10.91,13.37c-1.47,3.33-6,13.48-15.12,21.47a25.44,25.44,0,0,1-16.64,6M118.27,35.73c-.14,8.81,5.48,14.74,6.94,15.46,1.77.88,11.26,2.09,18.48-4.19,7.54-6.57,11.57-14.5,13.95-19.89a5.29,5.29,0,0,0-6-7.1c-6.28,1.07-25.53,8.48-26.09,8.7-1.88.75-6.79,3.45-7.26,7"/><path d="M107.36,75.72a8.15,8.15,0,0,1-4.33-1.4,92.93,92.93,0,0,1-7.89-5.38c-1.63-1.47-2-4.07-2-8.07a9.53,9.53,0,0,1,2.17-6.31l.22-.28a95.83,95.83,0,0,1,19.11-19A2.26,2.26,0,1,1,117.34,39,91.29,91.29,0,0,0,99.17,57l-.27.35a5.09,5.09,0,0,0-1.2,3.51c0,3.54.32,4.5.5,4.76.69.61,3.55,2.54,7.24,4.87a3.05,3.05,0,0,0,2.31.65,1.66,1.66,0,0,0,1-.92c3.77-8,13.21-18.16,13.61-18.59a2.26,2.26,0,1,1,3.3,3.08c-.09.1-9.37,10.1-12.84,17.45A6.08,6.08,0,0,1,109,75.49a5.87,5.87,0,0,1-1.63.23"/><path d="M93.68,105.38c-3.78,0-8-2.07-10.16-3.14L83,102C70.44,96.1,69.06,90.53,70.09,86.9c1.92-6.73,12.14-23.34,15-26.68,3.64-4.27,10.53-3.43,10.83-3.38a2.25,2.25,0,0,1-.58,4.47c-1.32-.17-5.12-.15-6.82,1.84-2.88,3.37-12.48,19.32-14.09,25-.75,2.64,3.23,6.37,10.39,9.72l.69.34c6.83,3.36,9.08,2.85,9.82,2.25,2.8-2.27,12.85-18.38,14.69-25.95a.84.84,0,0,1,0-.17,27,27,0,0,0,.64-3.07,2.25,2.25,0,1,1,2.08-4c.38.19,3.62,2.1,1.59,8.39-2.08,8.37-12.48,25.28-16.2,28.3a7,7,0,0,1-4.5,1.44"/><path d="M143.69,124a11.44,11.44,0,0,1-3.37-.53c-7.79-2.4-13.83-11.61-15.76-19.46-1.42-5.74-4-20,2.79-28,6.29-7.49,13.58-6.47,16.55-4.88,2.52,1.34,9,4.81,9.29,10.84,0,1,.11,2.08.11,2.09v0c.1,2.66,1,26.07.34,30-.24,1.43-1.34,6.26-5.29,8.7a8.79,8.79,0,0,1-4.66,1.29m-4.85-49.51c-2.09,0-5,.83-8,4.39-5.59,6.66-2.84,20.09-1.86,24,1.59,6.46,6.59,14.34,12.71,16.23a5.1,5.1,0,0,0,4.33-.29c1.86-1.15,2.89-3.74,3.21-5.61.44-2.59,0-18.75-.4-29,0-.15-.07-1.17-.11-2.13-.15-3.45-5.18-6.13-6.84-7a6.85,6.85,0,0,0-3-.63"/><path d="M123.58,164.64a8.71,8.71,0,0,1-5.41-2.41,11.31,11.31,0,0,1-3.67-10.34c2.41-17.54,16.77-22.37,17.38-22.57a2.25,2.25,0,0,1,1.39,4.29c-.52.17-12.28,4.25-14.31,18.93a6.73,6.73,0,0,0,1.63,5.73,5.48,5.48,0,0,0,3,1.86,66.91,66.91,0,0,0,17.26-8.35l.49-.37c2.17-1.64,4.22-3.18,5-8.27a2.25,2.25,0,1,1,4.45.68c-1.06,6.91-4.34,9.39-6.74,11.19l-.47.35a71.12,71.12,0,0,1-18.9,9.14,4.28,4.28,0,0,1-1.09.14"/><path d="M136.9,169.63a7.85,7.85,0,0,1-5.51-2.22c-1.21-1.23-3-4-1.35-8.9a2.26,2.26,0,1,1,4.28,1.43c-.46,1.37-.78,3.22.29,4.31a3.34,3.34,0,0,0,3.11.76c8.16-2.57,14.42-5.45,16.33-7.5a10.06,10.06,0,0,0,2.78-6.22,2.26,2.26,0,0,1,2.23-2.28,2.28,2.28,0,0,1,2.29,2.22,14.6,14.6,0,0,1-4,9.35c-3.39,3.66-12.91,7-18.28,8.73a7.22,7.22,0,0,1-2.17.32"/><path d="M106.08,118.76c-4.3,0-9.48-4.26-12-7.28a23.53,23.53,0,0,1-3.8-7.88,2.25,2.25,0,0,1,4.36-1.15,18.83,18.83,0,0,0,2.89,6.12c2.66,3.17,6.85,5.89,8.79,5.67,6.62-.55,15.46-10.11,18.31-13.76a2.26,2.26,0,0,1,3.55,2.79c-.47.59-11.58,14.65-21.45,15.46q-.3,0-.63,0"/><path d="M119.86,102.65h-.28c-3.65-.3-9.28-8.36-9.33-8.44-1.07-2,.3-10.52,2.28-14.21,2.59-4.8,18.09-12,19.36-12.36,2.67-.77,6.64,1.09,8.28,3.2a2.26,2.26,0,1,1-3.57,2.76A5.57,5.57,0,0,0,133.13,72c-2.35.74-15.18,7.48-16.62,10.15-1.55,2.88-2.26,8.6-2.15,10.16.92,1.33,4.34,5.19,5.67,5.85a15.08,15.08,0,0,0,4-2.8,2.25,2.25,0,0,1,3.08,3.29c-1.32,1.24-4.59,4-7.22,4"/><path d="M115.29,82.29a2.35,2.35,0,0,1-.64-.09,12.52,12.52,0,0,0-3.85-.33,2.25,2.25,0,1,1-.38-4.49,16.52,16.52,0,0,1,5.51.49,2.26,2.26,0,0,1-.64,4.42"/><path d="M124.07,134.23a2.34,2.34,0,0,1-.38,0,20.8,20.8,0,0,1-12.61-7.09l-.58-.61c-2.29-2.33-2.84-8.75-3-10.66a2.26,2.26,0,0,1,4.51-.27c.2,3.38,1,7.08,1.67,7.77.2.2.41.44.65.68a16.48,16.48,0,0,0,9.86,5.69c2-.12,5.52-2.44,6.93-3.58a2.25,2.25,0,0,1,2.84,3.5c-.58.47-5.8,4.6-9.93,4.6"/><path d="M144,148.74a4.92,4.92,0,0,1-1.14-.13,26.51,26.51,0,0,1-7.66-3c-4.34-2.46-4.74-6-4.83-10.67s.47-18.7.49-19.3a2.26,2.26,0,0,1,4.51.19c0,.14-.59,14.42-.49,19,.09,4.77.63,5.75,2.55,6.84a22.27,22.27,0,0,0,6.4,2.55c.87.19,3-1.26,3.94-3.42.07-.15,6.46-15.39,1.69-27.16a2.26,2.26,0,1,1,4.18-1.7c5.55,13.71-1.68,30.54-1.75,30.71-1.43,3.19-4.64,6.1-7.89,6.1"/><path d="M155.5,155.93a5.07,5.07,0,0,1-1.15-.13,38.18,38.18,0,0,1-6.62-2.77c-3-1.54-3.12-3.81-3.12-4.25a2.27,2.27,0,0,1,2.26-2.25h0a2.25,2.25,0,0,1,2.22,2,2,2,0,0,0,.7.54,34.85,34.85,0,0,0,5.59,2.38c.4.1,1.81-.43,3.38-4,1.85-4.17,5-18.1-.73-26.71-1.46-.73-3.6.6-3.62.61a2.25,2.25,0,0,1-2.49-3.76c1.84-1.23,5.82-2.68,9-.33a2.24,2.24,0,0,1,.51.51c7.1,10,3.95,25.82,1.43,31.51s-5.52,6.67-7.4,6.67m-6.38-7.13Zm0,0Z"/><path d="M157.43,120.51a2.24,2.24,0,0,1-2-1.21,20.43,20.43,0,0,0-5.19-5.79,2.26,2.26,0,0,1,2.76-3.57,24.35,24.35,0,0,1,6.43,7.28,2.25,2.25,0,0,1-2,3.29"/><path d="M110.85,124.59a2.21,2.21,0,0,1-1.13-.31c-.17-.1-17.21-10-28.18-15.63a46.78,46.78,0,0,0-20.66-5.05,2.26,2.26,0,0,1-.17-4.51,50.59,50.59,0,0,1,22.89,5.54c11.07,5.68,28.22,15.65,28.39,15.75a2.26,2.26,0,0,1-1.14,4.21"/><path d="M66.39,104a2.28,2.28,0,0,1-1.26-.39,2.25,2.25,0,0,1-.6-3.13l6.64-9.79a2.25,2.25,0,1,1,3.73,2.53L68.26,103a2.25,2.25,0,0,1-1.87,1"/><path d="M89.39,112.51a2.17,2.17,0,0,1-1-.26,2.25,2.25,0,0,1-.95-3l3.31-6.33a2.26,2.26,0,0,1,4,2.09l-3.32,6.33a2.24,2.24,0,0,1-2,1.21"/><path d="M105.65,121.59a2.32,2.32,0,0,1-.89-.18,2.26,2.26,0,0,1-1.18-3l1.26-2.89a2.26,2.26,0,0,1,4.14,1.79l-1.26,2.89a2.24,2.24,0,0,1-2.07,1.36"/><path d="M89.92,205.79c-12.53,0-23.83-4.77-26.62-6-16,2.16-20.88,0-26.47-7.08-5.16-6.54-12.35-26.9-13.09-31.91S25,136.27,26.22,133.9s5.19-4.06,6.38-4.53a2.26,2.26,0,1,1,1.67,4.19A12,12,0,0,0,30.22,136c-.72,1.9-2.71,19.44-2,24.1.66,4.43,7.59,24,12.17,29.77,4.1,5.19,6.79,7.59,23,5.32a2.28,2.28,0,0,1,1.31.21c.13.06,13.23,6.39,27,5.86,11.66-.46,14.68-4.46,20.17-11.71.95-1.25,1.95-2.58,3.06-4,7.36-9.2,14.69-24,14.76-24.19a2.26,2.26,0,0,1,4,2c-.31.63-7.62,15.43-15.29,25-1.08,1.35-2.06,2.64-3,3.86-5.69,7.52-9.81,13-23.59,13.5l-1.88,0"/><path d="M82.71,161.57a2.25,2.25,0,0,1-2.25-2.14C79.68,143.8,64,131.74,62,130.68a19.78,19.78,0,0,0-5.3-1.18A2.26,2.26,0,0,1,57.1,125,24.13,24.13,0,0,1,64,126.64c2.47,1.24,20.08,14.43,21,32.57a2.25,2.25,0,0,1-2.14,2.36h-.11"/><path d="M80.87,205a2.27,2.27,0,0,1-2-1.29c-.22-.47-5.39-11.65-2.29-23.53a2.26,2.26,0,0,1,4.37,1.14c-2.69,10.31,2,20.36,2,20.46a2.25,2.25,0,0,1-1.08,3,2.17,2.17,0,0,1-1,.22"/><path d="M116.93,151.68a2.2,2.2,0,0,1-.62-.08c-21.71-6.21-41.77-23.42-42.61-24.15a2.25,2.25,0,1,1,3-3.41c.2.17,20.16,17.29,40.9,23.22a2.25,2.25,0,0,1-.62,4.42"/><path d="M144.32,23a13.11,13.11,0,1,0,13.11-13.1A13.11,13.11,0,0,0,144.32,23"/><path d="M157.43,45.93a23,23,0,1,1,23-23,23,23,0,0,1-23,23m0-41.42A18.46,18.46,0,1,0,175.88,23,18.48,18.48,0,0,0,157.43,4.51"/></g></g></svg>